<svg xmlns="http://www.w3.org/2000/svg" viewBox="0 0 1600 1000" width="1600" height="1000"><defs><linearGradient id="sky" x1="0" y1="0" x2="0" y2="1"><stop offset="0" stop-color="#e8b088"/><stop offset="1" stop-color="#f8e0b8"/></linearGradient></defs><rect width="1600" height="1000" fill="url(#sky)"/><circle cx="972" cy="245" r="118" fill="#f2a860" opacity="0.85"/><polygon points="0,1000 0,541 67,556 133,575 200,541 267,529 333,535 400,474 467,462 533,438 600,449 667,471 733,471 800,518 867,543 933,549 1000,567 1067,571 1133,517 1200,467 1267,469 1333,449 1400,438 1467,444 1533,470 1600,470 1600,1000" fill="#a86844"/><polygon points="0,1000 0,669 67,675 133,687 200,686 267,677 333,642 400,633 467,621 533,591 600,604 667,588 733,629 800,632 867,671 933,671 1000,676 1067,693 1133,664 1200,622 1267,624 1333,606 1400,604 1467,584 1533,613 1600,642 1600,1000" fill="#8a4f34"/><polygon points="0,1000 0,795 67,800 133,826 200,813 267,802 333,790 400,783 467,765 533,756 600,755 667,742 733,766 800,789 867,791 933,820 1000,812 1067,814 1133,799 1200,771 1267,770 1333,758 1400,739 1467,741 1533,759 1600,775 1600,1000" fill="#6c3a28"/><rect width="1600" height="1000" fill="black" opacity="0.05"/></svg>