<svg xmlns="http://www.w3.org/2000/svg" viewBox="0 0 1600 1000" width="1600" height="1000"><defs><linearGradient id="sky" x1="0" y1="0" x2="0" y2="1"><stop offset="0" stop-color="#d08858"/><stop offset="1" stop-color="#f4cf98"/></linearGradient></defs><rect width="1600" height="1000" fill="url(#sky)"/><circle cx="669" cy="346" r="96" fill="#f2a860" opacity="0.85"/><polygon points="0,1000 0,546 67,519 133,562 200,560 267,536 333,512 400,503 467,460 533,458 600,455 667,438 733,503 800,506 867,543 933,557 1000,551 1067,564 1133,531 1200,501 1267,490 1333,482 1400,443 1467,429 1533,450 1600,504 1600,1000" fill="#a86844"/><polygon points="0,1000 0,632 67,675 133,667 200,665 267,663 333,669 400,651 467,621 533,616 600,607 667,609 733,610 800,633 867,664 933,686 1000,697 1067,667 1133,651 1200,655 1267,621 1333,603 1400,603 1467,598 1533,621 1600,654 1600,1000" fill="#8a4f34"/><polygon points="0,1000 0,797 67,811 133,819 200,798 267,787 333,811 400,771 467,756 533,751 600,743 667,769 733,755 800,793 867,782 933,805 1000,815 1067,796 1133,783 1200,796 1267,753 1333,744 1400,737 1467,755 1533,762 1600,765 1600,1000" fill="#6c3a28"/><rect width="1600" height="1000" fill="black" opacity="0.05"/></svg>