<svg xmlns="http://www.w3.org/2000/svg" viewBox="0 0 1600 1000" width="1600" height="1000"><defs><linearGradient id="sky" x1="0" y1="0" x2="0" y2="1"><stop offset="0" stop-color="#b86a48"/><stop offset="1" stop-color="#eec088"/></linearGradient></defs><rect width="1600" height="1000" fill="url(#sky)"/><circle cx="356" cy="386" r="77" fill="#f2a860" opacity="0.85"/><polygon points="0,1000 0,504 67,555 133,555 200,562 267,540 333,525 400,474 467,469 533,444 600,437 667,446 733,487 800,519 867,522 933,546 1000,549 1067,559 1133,514 1200,485 1267,486 1333,448 1400,432 1467,429 1533,464 1600,497 1600,1000" fill="#a86844"/><polygon points="0,1000 0,650 67,687 133,674 200,688 267,690 333,654 400,611 467,609 533,607 600,596 667,601 733,601 800,646 867,641 933,699 1000,688 1067,675 1133,657 1200,639 1267,610 1333,589 1400,587 1467,593 1533,591 1600,611 1600,1000" fill="#8a4f34"/><polygon points="0,1000 0,789 67,803 133,819 200,817 267,794 333,802 400,779 467,742 533,737 600,755 667,753 733,761 800,784 867,790 933,821 1000,819 1067,816 1133,806 1200,782 1267,778 1333,746 1400,744 1467,747 1533,752 1600,762 1600,1000" fill="#6c3a28"/><rect width="1600" height="1000" fill="black" opacity="0.05"/></svg>