<svg xmlns="http://www.w3.org/2000/svg" viewBox="0 0 1600 1000" width="1600" height="1000"><defs><linearGradient id="sky" x1="0" y1="0" x2="0" y2="1"><stop offset="0" stop-color="#f0c8a0"/><stop offset="1" stop-color="#fbecd0"/></linearGradient></defs><rect width="1600" height="1000" fill="url(#sky)"/><circle cx="970" cy="218" r="126" fill="#f2a860" opacity="0.85"/><polygon points="0,1000 0,511 67,532 133,563 200,551 267,558 333,514 400,468 467,473 533,432 600,442 667,477 733,441 800,481 867,535 933,550 1000,548 1067,565 1133,537 1200,480 1267,491 1333,453 1400,447 1467,444 1533,466 1600,497 1600,1000" fill="#a86844"/><polygon points="0,1000 0,660 67,684 133,696 200,676 267,665 333,650 400,631 467,602 533,597 600,582 667,616 733,612 800,644 867,664 933,678 1000,691 1067,671 1133,672 1200,637 1267,601 1333,605 1400,586 1467,597 1533,608 1600,624 1600,1000" fill="#8a4f34"/><polygon points="0,1000 0,797 67,799 133,805 200,819 267,801 333,791 400,775 467,752 533,761 600,754 667,767 733,774 800,799 867,786 933,816 1000,809 1067,819 1133,780 1200,791 1267,755 1333,754 1400,736 1467,753 1533,762 1600,789 1600,1000" fill="#6c3a28"/><rect width="1600" height="1000" fill="black" opacity="0.05"/></svg>