<svg xmlns="http://www.w3.org/2000/svg" viewBox="0 0 1600 1000" width="1600" height="1000"><defs><linearGradient id="sky" x1="0" y1="0" x2="0" y2="1"><stop offset="0" stop-color="#f7c9d4"/><stop offset="1" stop-color="#fdeee6"/></linearGradient></defs><rect width="1600" height="1000" fill="url(#sky)"/><circle cx="872" cy="274" r="76" fill="#f6b1a0" opacity="0.85"/><polygon points="0,1000 0,468 67,510 133,513 200,492 267,412 333,387 400,434 467,478 533,490 600,514 667,461 733,378 800,366 867,417 933,503 1000,527 1067,498 1133,470 1200,422 1267,379 1333,422 1400,448 1467,517 1533,511 1600,477 1600,1000" fill="#9c5c74"/><polygon points="0,1000 0,655 67,651 133,636 200,581 267,565 333,598 400,658 467,637 533,577 600,550 667,613 733,662 800,629 867,589 933,565 1000,573 1067,656 1133,673 1200,614 1267,579 1333,585 1400,650 1467,652 1533,607 1600,576 1600,1000" fill="#7a4460"/><polygon points="0,1000 0,773 67,795 133,748 200,734 267,776 333,801 400,765 467,741 533,749 600,811 667,775 733,746 800,762 867,811 933,792 1000,743 1067,752 1133,808 1200,797 1267,756 1333,743 1400,778 1467,806 1533,750 1600,741 1600,1000" fill="#5c3350"/><g transform="translate(661,620) scale(0.89)" fill="#c94f4f"><rect x="-90" y="-160" width="180" height="16" rx="6"/><rect x="-72" y="-132" width="144" height="10"/><rect x="-64" y="-132" width="12" height="150"/><rect x="52" y="-132" width="12" height="150"/></g><rect width="1600" height="1000" fill="black" opacity="0.05"/></svg>