<svg xmlns="http://www.w3.org/2000/svg" viewBox="0 0 1600 1000" width="1600" height="1000"><defs><linearGradient id="sky" x1="0" y1="0" x2="0" y2="1"><stop offset="0" stop-color="#e8a0b4"/><stop offset="1" stop-color="#f9dccb"/></linearGradient></defs><rect width="1600" height="1000" fill="url(#sky)"/><circle cx="1213" cy="330" r="81" fill="#f6b1a0" opacity="0.85"/><polygon points="0,1000 0,481 67,531 133,514 200,466 267,375 333,368 400,430 467,519 533,530 600,486 667,451 733,385 800,393 867,428 933,479 1000,512 1067,502 1133,439 1200,385 1267,381 1333,388 1400,486 1467,528 1533,472 1600,456 1600,1000" fill="#9c5c74"/><polygon points="0,1000 0,647 67,648 133,631 200,562 267,566 333,617 400,660 467,630 533,591 600,569 667,614 733,658 800,672 867,586 933,564 1000,586 1067,623 1133,665 1200,591 1267,573 1333,569 1400,629 1467,664 1533,619 1600,578 1600,1000" fill="#7a4460"/><polygon points="0,1000 0,790 67,796 133,771 200,743 267,778 333,804 400,775 467,745 533,773 600,810 667,791 733,737 800,753 867,806 933,788 1000,742 1067,745 1133,801 1200,777 1267,754 1333,742 1400,780 1467,797 1533,762 1600,740 1600,1000" fill="#5c3350"/><g transform="translate(865,620) scale(0.88)" fill="#c94f4f"><rect x="-90" y="-160" width="180" height="16" rx="6"/><rect x="-72" y="-132" width="144" height="10"/><rect x="-64" y="-132" width="12" height="150"/><rect x="52" y="-132" width="12" height="150"/></g><rect width="1600" height="1000" fill="black" opacity="0.05"/></svg>