<svg xmlns="http://www.w3.org/2000/svg" viewBox="0 0 1600 1000" width="1600" height="1000"><defs><linearGradient id="sky" x1="0" y1="0" x2="0" y2="1"><stop offset="0" stop-color="#d97f9d"/><stop offset="1" stop-color="#f2c9c2"/></linearGradient></defs><rect width="1600" height="1000" fill="url(#sky)"/><circle cx="879" cy="262" r="111" fill="#f6b1a0" opacity="0.85"/><polygon points="0,1000 0,475 67,492 133,506 200,413 267,376 333,396 400,414 467,462 533,524 600,478 667,486 733,413 800,392 867,407 933,480 1000,516 1067,493 1133,420 1200,370 1267,394 1333,453 1400,456 1467,524 1533,484 1600,475 1600,1000" fill="#9c5c74"/><polygon points="0,1000 0,656 67,663 133,650 200,591 267,557 333,615 400,676 467,650 533,583 600,549 667,623 733,657 800,664 867,620 933,559 1000,594 1067,641 1133,650 1200,597 1267,548 1333,574 1400,656 1467,658 1533,630 1600,574 1600,1000" fill="#7a4460"/><polygon points="0,1000 0,773 67,803 133,763 200,741 267,771 333,813 400,750 467,743 533,768 600,794 667,763 733,746 800,755 867,798 933,798 1000,730 1067,747 1133,807 1200,794 1267,753 1333,735 1400,784 1467,806 1533,754 1600,740 1600,1000" fill="#5c3350"/><g transform="translate(881,620) scale(1.12)" fill="#c94f4f"><rect x="-90" y="-160" width="180" height="16" rx="6"/><rect x="-72" y="-132" width="144" height="10"/><rect x="-64" y="-132" width="12" height="150"/><rect x="52" y="-132" width="12" height="150"/></g><rect width="1600" height="1000" fill="black" opacity="0.05"/></svg>