<svg xmlns="http://www.w3.org/2000/svg" viewBox="0 0 1600 1000" width="1600" height="1000"><defs><linearGradient id="sky" x1="0" y1="0" x2="0" y2="1"><stop offset="0" stop-color="#fbe3e8"/><stop offset="1" stop-color="#fff7f0"/></linearGradient></defs><rect width="1600" height="1000" fill="url(#sky)"/><circle cx="571" cy="252" r="111" fill="#f6b1a0" opacity="0.85"/><polygon points="0,1000 0,456 67,495 133,523 200,422 267,395 333,387 400,422 467,504 533,517 600,483 667,474 733,416 800,376 867,394 933,500 1000,507 1067,479 1133,438 1200,421 1267,362 1333,437 1400,507 1467,526 1533,511 1600,462 1600,1000" fill="#9c5c74"/><polygon points="0,1000 0,641 67,670 133,609 200,572 267,563 333,619 400,650 467,630 533,599 600,567 667,583 733,670 800,643 867,582 933,565 1000,561 1067,660 1133,666 1200,629 1267,579 1333,581 1400,642 1467,667 1533,653 1600,584 1600,1000" fill="#7a4460"/><polygon points="0,1000 0,775 67,804 133,773 200,740 267,778 333,808 400,775 467,727 533,765 600,811 667,790 733,736 800,754 867,799 933,769 1000,749 1067,750 1133,810 1200,791 1267,746 1333,740 1400,798 1467,805 1533,767 1600,728 1600,1000" fill="#5c3350"/><g transform="translate(870,620) scale(1.01)" fill="#c94f4f"><rect x="-90" y="-160" width="180" height="16" rx="6"/><rect x="-72" y="-132" width="144" height="10"/><rect x="-64" y="-132" width="12" height="150"/><rect x="52" y="-132" width="12" height="150"/></g><rect width="1600" height="1000" fill="black" opacity="0.05"/></svg>