<svg xmlns="http://www.w3.org/2000/svg" viewBox="0 0 1600 1000" width="1600" height="1000"><defs><linearGradient id="sky" x1="0" y1="0" x2="0" y2="1"><stop offset="0" stop-color="#8fb8c0"/><stop offset="1" stop-color="#dcece4"/></linearGradient></defs><rect width="1600" height="1000" fill="url(#sky)"/><circle cx="881" cy="207" r="120" fill="#f0e6c0" opacity="0.85"/><polygon points="0,1000 0,542 67,564 133,462 200,475 267,352 333,345 400,437 467,437 533,559 600,574 667,530 733,353 800,407 867,452 933,496 1000,508 1067,600 1133,456 1200,399 1267,383 1333,394 1400,464 1467,493 1533,546 1600,452 1600,1000" fill="#5f8578"/><polygon points="0,1000 0,639 67,707 133,600 200,572 267,480 333,588 400,713 467,742 533,495 600,553 667,594 733,701 800,688 867,590 933,519 1000,615 1067,670 1133,664 1200,577 1267,566 1333,564 1400,600 1467,654 1533,638 1600,568 1600,1000" fill="#41615c"/><polygon points="0,1000 0,767 67,797 133,811 200,710 267,720 333,887 400,815 467,673 533,718 600,802 667,857 733,674 800,768 867,842 933,772 1000,735 1067,728 1133,834 1200,820 1267,726 1333,756 1400,871 1467,817 1533,806 1600,759 1600,1000" fill="#2c4448"/><rect y="860" width="1600" height="140" fill="#2c4448" opacity="0.5"/><rect width="1600" height="1000" fill="black" opacity="0.05"/></svg>