<svg xmlns="http://www.w3.org/2000/svg" viewBox="0 0 1600 1000" width="1600" height="1000"><defs><linearGradient id="sky" x1="0" y1="0" x2="0" y2="1"><stop offset="0" stop-color="#6f9fb0"/><stop offset="1" stop-color="#cfe4dc"/></linearGradient></defs><rect width="1600" height="1000" fill="url(#sky)"/><circle cx="1278" cy="196" r="94" fill="#f0e6c0" opacity="0.85"/><polygon points="0,1000 0,543 67,582 133,508 200,483 267,418 333,379 400,452 467,569 533,522 600,554 667,508 733,277 800,325 867,329 933,429 1000,617 1067,557 1133,401 1200,349 1267,269 1333,379 1400,514 1467,506 1533,493 1600,416 1600,1000" fill="#5f8578"/><polygon points="0,1000 0,687 67,639 133,614 200,564 267,553 333,529 400,750 467,675 533,523 600,577 667,597 733,649 800,665 867,596 933,538 1000,494 1067,650 1133,699 1200,548 1267,458 1333,518 1400,681 1467,706 1533,631 1600,549 1600,1000" fill="#41615c"/><polygon points="0,1000 0,799 67,881 133,736 200,745 267,831 333,866 400,741 467,740 533,725 600,860 667,856 733,705 800,807 867,798 933,854 1000,743 1067,749 1133,839 1200,817 1267,730 1333,748 1400,765 1467,795 1533,699 1600,736 1600,1000" fill="#2c4448"/><rect y="860" width="1600" height="140" fill="#2c4448" opacity="0.5"/><rect width="1600" height="1000" fill="black" opacity="0.05"/></svg>