<svg xmlns="http://www.w3.org/2000/svg" viewBox="0 0 1600 1000" width="1600" height="1000"><defs><linearGradient id="sky" x1="0" y1="0" x2="0" y2="1"><stop offset="0" stop-color="#a8ccd0"/><stop offset="1" stop-color="#f0f6ee"/></linearGradient></defs><rect width="1600" height="1000" fill="url(#sky)"/><circle cx="657" cy="199" r="110" fill="#f0e6c0" opacity="0.85"/><polygon points="0,1000 0,435 67,583 133,581 200,364 267,350 333,312 400,359 467,499 533,525 600,529 667,516 733,347 800,408 867,459 933,422 1000,557 1067,595 1133,384 1200,385 1267,300 1333,355 1400,555 1467,515 1533,536 1600,470 1600,1000" fill="#5f8578"/><polygon points="0,1000 0,586 67,682 133,630 200,549 267,499 333,605 400,679 467,650 533,609 600,468 667,525 733,649 800,707 867,605 933,523 1000,529 1067,610 1133,753 1200,572 1267,561 1333,558 1400,600 1467,679 1533,667 1600,481 1600,1000" fill="#41615c"/><polygon points="0,1000 0,841 67,806 133,727 200,707 267,783 333,805 400,776 467,692 533,779 600,858 667,837 733,677 800,695 867,797 933,779 1000,700 1067,746 1133,769 1200,844 1267,691 1333,669 1400,774 1467,866 1533,733 1600,678 1600,1000" fill="#2c4448"/><rect y="860" width="1600" height="140" fill="#2c4448" opacity="0.5"/><rect width="1600" height="1000" fill="black" opacity="0.05"/></svg>