<svg xmlns="http://www.w3.org/2000/svg" viewBox="0 0 1600 1000" width="1600" height="1000"><defs><linearGradient id="sky" x1="0" y1="0" x2="0" y2="1"><stop offset="0" stop-color="#a8c8e0"/><stop offset="1" stop-color="#f6e3c8"/></linearGradient></defs><rect width="1600" height="1000" fill="url(#sky)"/><circle cx="1253" cy="381" r="109" fill="#f4c878" opacity="0.85"/><polygon points="0,1000 0,533 67,543 133,542 200,508 267,486 333,515 400,541 467,558 533,512 600,497 667,497 733,504 800,545 867,547 933,514 1000,489 1067,486 1133,512 1200,550 1267,548 1333,507 1400,494 1467,514 1533,543 1600,548 1600,1000" fill="#c88a5f"/><rect x="0" y="623" width="146" height="377" fill="#a06546"/><rect x="160" y="629" width="88" height="371" fill="#a06546"/><rect x="257" y="511" width="157" height="489" fill="#a06546"/><polygon points="257,511 335,472 413,511" fill="#a06546"/><rect x="420" y="592" width="148" height="408" fill="#a06546"/><polygon points="420,592 494,569 568,592" fill="#a06546"/><rect x="582" y="537" width="155" height="463" fill="#a06546"/><rect x="749" y="602" width="132" height="398" fill="#a06546"/><polygon points="749,602 815,566 881,602" fill="#a06546"/><rect x="898" y="573" width="130" height="427" fill="#a06546"/><rect x="1039" y="505" width="74" height="495" fill="#a06546"/><polygon points="1039,505 1076,471 1113,505" fill="#a06546"/><rect x="1119" y="574" width="118" height="426" fill="#a06546"/><rect x="1253" y="531" width="89" height="469" fill="#a06546"/><rect x="1357" y="624" width="61" height="376" fill="#a06546"/><polygon points="1357,624 1388,587 1418,624" fill="#a06546"/><rect x="1432" y="507" width="122" height="493" fill="#a06546"/><polygon points="1432,507 1493,472 1554,507" fill="#a06546"/><rect x="1558" y="646" width="151" height="354" fill="#a06546"/><rect y="820" width="1600" height="180" fill="#3f6f9f" opacity="0.55"/><rect width="1600" height="1000" fill="black" opacity="0.05"/></svg>