<svg xmlns="http://www.w3.org/2000/svg" viewBox="0 0 1600 1000" width="1600" height="1000"><defs><linearGradient id="sky" x1="0" y1="0" x2="0" y2="1"><stop offset="0" stop-color="#7fa9cc"/><stop offset="1" stop-color="#f9d9b0"/></linearGradient></defs><rect width="1600" height="1000" fill="url(#sky)"/><circle cx="915" cy="372" r="105" fill="#f4c878" opacity="0.85"/><polygon points="0,1000 0,534 67,554 133,542 200,508 267,487 333,507 400,533 467,553 533,507 600,499 667,505 733,526 800,529 867,554 933,518 1000,490 1067,512 1133,530 1200,538 1267,541 1333,518 1400,495 1467,498 1533,544 1600,559 1600,1000" fill="#c88a5f"/><rect x="0" y="587" width="103" height="413" fill="#a06546"/><rect x="121" y="542" width="108" height="458" fill="#a06546"/><rect x="243" y="500" width="135" height="500" fill="#a06546"/><polygon points="243,500 310,453 377,500" fill="#a06546"/><rect x="387" y="648" width="129" height="352" fill="#a06546"/><rect x="535" y="601" width="125" height="399" fill="#a06546"/><polygon points="535,601 597,561 660,601" fill="#a06546"/><rect x="668" y="528" width="108" height="472" fill="#a06546"/><rect x="793" y="634" width="99" height="366" fill="#a06546"/><rect x="913" y="530" width="144" height="470" fill="#a06546"/><rect x="1068" y="641" width="86" height="359" fill="#a06546"/><rect x="1173" y="569" width="97" height="431" fill="#a06546"/><rect x="1283" y="636" width="133" height="364" fill="#a06546"/><rect x="1425" y="543" width="141" height="457" fill="#a06546"/><polygon points="1425,543 1496,497 1566,543" fill="#a06546"/><rect x="1575" y="585" width="130" height="415" fill="#a06546"/><rect y="820" width="1600" height="180" fill="#3f6f9f" opacity="0.55"/><rect width="1600" height="1000" fill="black" opacity="0.05"/></svg>