<svg xmlns="http://www.w3.org/2000/svg" viewBox="0 0 1600 1000" width="1600" height="1000"><defs><linearGradient id="sky" x1="0" y1="0" x2="0" y2="1"><stop offset="0" stop-color="#c7dcea"/><stop offset="1" stop-color="#fdf1dc"/></linearGradient></defs><rect width="1600" height="1000" fill="url(#sky)"/><circle cx="473" cy="395" r="105" fill="#f4c878" opacity="0.85"/><polygon points="0,1000 0,535 67,550 133,531 200,511 267,489 333,502 400,532 467,555 533,536 600,492 667,498 733,513 800,540 867,545 933,501 1000,490 1067,490 1133,539 1200,548 1267,541 1333,504 1400,500 1467,501 1533,529 1600,552 1600,1000" fill="#c88a5f"/><rect x="0" y="537" width="85" height="463" fill="#a06546"/><rect x="102" y="541" width="147" height="459" fill="#a06546"/><rect x="267" y="637" width="139" height="363" fill="#a06546"/><rect x="424" y="606" width="109" height="394" fill="#a06546"/><rect x="546" y="605" width="105" height="395" fill="#a06546"/><rect x="667" y="551" width="122" height="449" fill="#a06546"/><rect x="797" y="625" width="157" height="375" fill="#a06546"/><rect x="963" y="615" width="82" height="385" fill="#a06546"/><rect x="1059" y="529" width="115" height="471" fill="#a06546"/><rect x="1191" y="623" width="140" height="377" fill="#a06546"/><rect x="1337" y="574" width="72" height="426" fill="#a06546"/><rect x="1413" y="599" width="105" height="401" fill="#a06546"/><polygon points="1413,599 1465,568 1518,599" fill="#a06546"/><rect x="1537" y="530" width="136" height="470" fill="#a06546"/><polygon points="1537,530 1605,483 1673,530" fill="#a06546"/><rect y="820" width="1600" height="180" fill="#3f6f9f" opacity="0.55"/><rect width="1600" height="1000" fill="black" opacity="0.05"/></svg>