<svg xmlns="http://www.w3.org/2000/svg" viewBox="0 0 1600 1000" width="1600" height="1000"><defs><linearGradient id="sky" x1="0" y1="0" x2="0" y2="1"><stop offset="0" stop-color="#88b0d0"/><stop offset="1" stop-color="#f2cfa8"/></linearGradient></defs><rect width="1600" height="1000" fill="url(#sky)"/><circle cx="934" cy="365" r="121" fill="#f4c878" opacity="0.85"/><polygon points="0,1000 0,543 67,553 133,534 200,494 267,499 333,505 400,540 467,541 533,525 600,499 667,494 733,527 800,543 867,546 933,516 1000,487 1067,495 1133,518 1200,556 1267,536 1333,511 1400,483 1467,499 1533,543 1600,543 1600,1000" fill="#c88a5f"/><rect x="0" y="601" width="99" height="399" fill="#a06546"/><polygon points="0,601 50,580 99,601" fill="#a06546"/><rect x="109" y="594" width="72" height="406" fill="#a06546"/><polygon points="109,594 145,551 181,594" fill="#a06546"/><rect x="188" y="577" width="123" height="423" fill="#a06546"/><rect x="333" y="525" width="153" height="475" fill="#a06546"/><rect x="504" y="656" width="153" height="344" fill="#a06546"/><rect x="675" y="550" width="82" height="450" fill="#a06546"/><rect x="776" y="552" width="130" height="448" fill="#a06546"/><polygon points="776,552 841,518 906,552" fill="#a06546"/><rect x="919" y="573" width="127" height="427" fill="#a06546"/><polygon points="919,573 982,538 1045,573" fill="#a06546"/><rect x="1055" y="532" width="101" height="468" fill="#a06546"/><rect x="1160" y="587" width="61" height="413" fill="#a06546"/><rect x="1230" y="517" width="144" height="483" fill="#a06546"/><rect x="1381" y="603" width="143" height="397" fill="#a06546"/><rect x="1534" y="648" width="145" height="352" fill="#a06546"/><rect y="820" width="1600" height="180" fill="#3f6f9f" opacity="0.55"/><rect width="1600" height="1000" fill="black" opacity="0.05"/></svg>