<svg xmlns="http://www.w3.org/2000/svg" viewBox="0 0 1600 1000" width="1600" height="1000"><defs><linearGradient id="sky" x1="0" y1="0" x2="0" y2="1"><stop offset="0" stop-color="#bcd8d8"/><stop offset="1" stop-color="#eef5ee"/></linearGradient></defs><rect width="1600" height="1000" fill="url(#sky)"/><circle cx="1002" cy="350" r="121" fill="#f0e6c0" opacity="0.85"/><polygon points="0,1000 0,492 67,529 133,553 200,505 267,450 333,302 400,390 467,534 533,624 600,480 667,499 733,326 800,351 867,439 933,516 1000,516 1067,494 1133,424 1200,361 1267,320 1333,486 1400,599 1467,484 1533,507 1600,405 1600,1000" fill="#5f8578"/><polygon points="0,1000 0,597 67,702 133,697 200,499 267,545 333,551 400,643 467,654 533,570 600,533 667,523 733,715 800,711 867,645 933,487 1000,533 1067,684 1133,643 1200,621 1267,488 1333,537 1400,684 1467,670 1533,684 1600,583 1600,1000" fill="#41615c"/><polygon points="0,1000 0,821 67,891 133,739 200,717 267,799 333,795 400,743 467,712 533,745 600,868 667,826 733,714 800,694 867,871 933,817 1000,763 1067,684 1133,772 1200,868 1267,734 1333,711 1400,854 1467,799 1533,749 1600,677 1600,1000" fill="#2c4448"/><rect y="860" width="1600" height="140" fill="#2c4448" opacity="0.5"/><rect width="1600" height="1000" fill="black" opacity="0.05"/></svg>